# xmcd
#
# Track frame offsets:
#	150
#	18231
#	30389
#	51301
#	64717
#	83388
#	95200
#	111068
#	125423
#	136197
#	155522
#	176663
#	192815
#	206766
#	217459
#	229788
#	244223
#
# Disc length: 3463 seconds
#
# Revision: 1
# Processed by: cddbd v1.5.2PL0 Copyright (c) Steve Scherf et al.
# Submitted via: EZCDAudioConverter 8.5.0.1
#
DISCID=ed0d8511
DTITLE=Townes Van Zandt - Rear View Mirror [Live]
DYEAR=1993
DGENRE=Country
TTITLE0=Pancho and Lefty
TTITLE1=If I Needed You
TTITLE2=For The Sake Of The Song
TTITLE3=Our Mother The Mountain
TTITLE4=To Live Is To Fly
TTITLE5=Lungs
TTITLE6=Flyin' Shoes
TTITLE7=No Place To Fall
TTITLE8=Dollar Bill Blues
TTITLE9=White Freight Liner Blues
TTITLE10=Tecumseh Valley
TTITLE11=Don't You Take It Too Bad
TTITLE12=Tower Song
TTITLE13=Rex's Blues
TTITLE14=Brother Flower
TTITLE15=Waitin' 'Round To Die
TTITLE16=Colorado Girl
EXTD=
EXTT0=
EXTT1=
EXTT2=
EXTT3=
EXTT4=
EXTT5=
EXTT6=
EXTT7=
EXTT8=
EXTT9=
EXTT10=
EXTT11=
EXTT12=
EXTT13=
EXTT14=
EXTT15=
EXTT16=
PLAYORDER=
